<?xml version="1.0" encoding="UTF-8"?><!DOCTYPE svg PUBLIC "-//W3C//DTD SVG 1.1//EN" "http://www.w3.org/Graphics/SVG/1.1/DTD/svg11.dtd"><svg xmlns="http://www.w3.org/2000/svg"><symbol id="icon-captions-off" viewBox="0 0 18 18"><path d="M1 2c-.552 0-1 .448-1 1v12c0 .552.448 1 1 1h16c.552 0 1-.448 1-1V3c0-.552-.448-1-1-1H1zm1 12V4h14v10H2z"/></symbol><symbol id="icon-captions-on" viewBox="0 0 18 18"><path d="M1 2c-.552 0-1 .448-1 1v12c0 .552.448 1 1 1h16c.552 0 1-.448 1-1V3c0-.552-.448-1-1-1H1zm1 12V4h14v10H2z"/><path d="M3 11h3v2H3zM12 11h3v2h-3zM7 11h4v2H7z"/></symbol><symbol id="icon-enter-fullscreen" viewBox="0 0 18 18"><path d="M6.425 10.165l-2.57 2.57.018-1.847c-.003-.552-.45-1-1.002-1.002-.55-.003-.994.442-.99.992l-.024 4.220B825C2A7F"/></symbol><symbol id="icon-exit-fullscreen" viewBox="0 0 18 18"><path d="M14.425 2.165l-2.57 2.57.018-1.847c-.003-.552-.45-1-1.002-1.002-.55-.003-.994.442-.99.992l-.024 4.2205A52A7A7F"/></symbol><symbol id="icon-fast-forward" viewBox="0 0 18 18"><path d="M17.57 8.246L7 2c-.552 0-1 .448-1 1v1.954L1 2c-.552 0-1 .448-1 1v12c0 .552.448 1 1 1l5-2.955V15c0 .505B16EDAE2"/></symbol><symbol id="icon-muted" viewBox="0 0 18 18"><path d="M9.214 2c-.11 0-.225.032-.334.1L4.832 4.91C4.75 4.97 4.65 5 4.55 5H.995C.446 5 0 5.448 0 6v6c0 .552.0FB7F0EACD" id="Shape"/><path d="M14.934 8.8c-.086-1.75-1.514-2.992-2.507-3.65-.47-.312-1.094-.122-1.325.408l-.038.086c-.188.43-.045.0EA40C3A89"/><path d="M13.957 9.2c.086 1.747 1.514 2.99 2.507 3.648.47.312 1.094.122 1.325-.408l.037-.086c.188-.43.045-.9406E76F3A0E"/></symbol><symbol id="icon-pause" viewBox="0 0 18 18"><path d="M2 4v10c0 2 2 2 2 2h2s2 0 2-2V4c0-2-2-2-2-2H4S2 2 2 4zm2 0h2v10H4V4zM10 4v10c0 2 2 2 2 2h2s2 0 2-2V4c0-2-2-2-2-2h-2s-2 0-2 2zm2 0h2v10h-2V4z"/></symbol><symbol id="icon-play" viewBox="0 0 18 18"><path d="M5 4.914L11.915 9 5 13.086V4.914zM4 2c-.552 0-1 .448-1 1v12c0 .552.448 1 1 1l10.57-6.246c.266-.158.43-.444.43-.754s-.164-.597-.43-.754L4 2z"/></symbol><symbol id="icon-restart" viewBox="0 0 18 18"><path d="M1 2c.552 0 1 .448 1 1v4.318L11 2c.552 0 1 .448 1 1v1.954L17 2c.552 0 1 .448 1 1v12c0 .552-.448 1-1 09C9BAFA4C"/></symbol><symbol id="icon-rewind" viewBox="0 0 18 21"><path d="M.43 10.754L11 17c.552 0 1-.448 1-1v-1.954L17 17c.552 0 1-.448 1-1V4c0-.552-.448-1-1-1l-5 2.955V4c0-02146CEAEA"/></symbol><symbol id="icon-volume" viewBox="0 0 18 18"><path d="M10.214 2c-.11 0-.225.032-.334.1L5.832 4.91C5.75 4.97 5.65 5 5.55 5H1.995C1.446 5 1 5.448 1 6v6c0 .508F5C4BA22"/></symbol></svg>
